<svg width="16" height="16" fill="none" xmlns="http://www.w3.org/2000/svg" id="support-consumption-small" data-supported-dps="16x16">
  <mask id="reactions-support-consumption-small-a" maskUnits="userSpaceOnUse" x="1" y="1" width="14" height="14">
    <path d="M8 15A7 7 0 108 1a7 7 0 000 14z" fill="#fff"/>
  </mask>
  <g mask="url(#reactions-support-consumption-small-a)">
    <path d="M8 15A7 7 0 108 1a7 7 0 000 14z" fill="#D8D8D8"/>
    <path d="M8 15A7 7 0 108 1a7 7 0 000 14z" fill="#BBA9D1"/>
    <path d="M6.545 10.617h-.133a.264.264 0 01-.073 0c-.226-.084-1.377-.523-2.149-.739a.25.25 0 01-.18-.21.685.685 0 01.107-.502A.406.406 0 014.45 9c.066 0 .133.01.196.033.153.06.296.144.422.25l.057.04.356.25c.133.092.25.172.332.235l.832.333c.113.05.582.263.556.38-.027.116-.53.106-.642.109l-.014-.013z" fill="#FEF2FF"/>
    <path d="M15.473 14.07a24.42 24.42 0 01-3.559-.329h-.067a21.272 21.272 0 01-2.639-.512c-.768-.216-1.526-.498-2.26-.768l-.326-.118a71.16 71.16 0 01-1.776-.672l-.193-.076a7.81 7.81 0 01-.902-.397c-.403-.22-.526-.502-.35-.836v-.027a.598.598 0 01.582-.311h.045c.059-.004.117-.004.176 0 .639.065 2.488.722 2.853.853l1.193.04h.028l2.699.084c-.21-.177-.74-.492-2.032-.803-.246-.06-.47-.125-.523-.292a.65.65 0 01.235-.712c.17-.094.368-.137.565-.122a3.226 3.226 0 011.053.177c.281.09.572.15.867.18.482.066.959.165 1.425.3 1.505.377 1.796 1.082 1.986 1.509-.06-.174 0-.046.028-.112l.042-.056h.102a.852.852 0 00.13 0c.26 0 .75-.023.758-.023.123 0 .702-.134.702-.026a5.584 5.584 0 01-.67 2.953.196.196 0 01-.144.095h-.028z" fill="#EAE2F3"/>
    <path d="M13.204 9.99a.093.093 0 00.093 0h-.093z" fill="#D67676"/>
    <path fill-rule="evenodd" clip-rule="evenodd" d="M6.142 3.574a1.44 1.44 0 00-2.036-.027l-.023.027a1.5 1.5 0 000 2.095L6.3 7.918l2.222-2.252a1.497 1.497 0 000-2.092 1.43 1.43 0 00-2.055-.004l-.163.167-.163-.163z" fill="#ECAA96"/>
    <path clip-rule="evenodd" d="M16.923 11.248c.116.08.121.903-.13 1.627-.25.724-1.08 1.573-1.214 1.688-.133.115-4.853-.522-5.96-.696-1.107-.174-6.28-2.588-6.487-2.698-.208-.11-.227-.898.367-1.061.593-.164 2.85.806 3.804.883.954.078 2.537.178 3.666.178s-1.304-.683-1.696-.82c-.393-.14-1.035-.314-1.083-.642-.047-.328.437-.663.759-.748.322-.085.776.086 2.02.355s1.448.115 2.448.501 1.472.968 1.583 1.176c.11.209 1.807.178 1.923.257z" stroke="#493D57"/>
    <path d="M4.073 10.092c-.227-.614.112-1.004.516-1.084.403-.079 1.178.417 1.717.917.434.401.787.622 1.899 1.12" stroke="#493D57"/>
    <path clip-rule="evenodd" d="M6.225 3.37a1.58 1.58 0 00-2.214.016 1.583 1.583 0 00-.026 2.216L6.4 8l2.416-2.401a1.58 1.58 0 00-1.12-2.69c-.418.002-.818.17-1.112.468L6.4 3.55l-.175-.18z" stroke="#77280C" stroke-linecap="round" stroke-linejoin="round"/>
  </g>
</svg>
